<?xml version="1.0" encoding="UTF-8" standalone="no" ?>
<!DOCTYPE svg PUBLIC "-//W3C//DTD SVG 1.1//EN" "http://www.w3.org/Graphics/SVG/1.1/DTD/svg11.dtd">
<svg xmlns="http://www.w3.org/2000/svg" xmlns:xlink="http://www.w3.org/1999/xlink" version="1.1" width="456" height="456" viewBox="0 0 456 456" xml:space="preserve">
<desc>Created with Fabric.js 5.2.4</desc>
<defs>
</defs>
<g transform="matrix(1 0 0 1 228 228)" id="3e8e2994-073a-4b1a-a38a-cba8826fe82b"  >
<rect style="stroke: none; stroke-width: 1; stroke-dasharray: none; stroke-linecap: butt; stroke-dashoffset: 0; stroke-linejoin: miter; stroke-miterlimit: 4; fill: rgb(255,255,255); fill-rule: nonzero; opacity: 1; visibility: hidden;" vector-effect="non-scaling-stroke"  x="-228" y="-228" rx="0" ry="0" width="456" height="456" />
</g>
<g transform="matrix(Infinity NaN NaN Infinity 0 0)" id="c705b70f-6121-42b7-84c0-a80d0e0f7bb0"  >
</g>
<g transform="matrix(1.99 0 0 2.08 228 234.25)"  >
<g style="" vector-effect="non-scaling-stroke"   >
		<g transform="matrix(1 0 0 1 0 0)"  >
<path style="stroke: none; stroke-width: 1; stroke-dasharray: none; stroke-linecap: butt; stroke-dashoffset: 0; stroke-linejoin: miter; stroke-miterlimit: 4; fill: rgb(1,139,128); fill-rule: nonzero; opacity: 1;" vector-effect="non-scaling-stroke"  transform=" translate(-115.5, -114)" d="M 0 0 C 76.23 0 152.46 0 231 0 C 231 75.24 231 150.48 231 228 C 154.77 228 78.54 228 0 228 C 0 152.76 0 77.52 0 0 Z" stroke-linecap="round" />
</g>
		<g transform="matrix(1 0 0 1 4.94 -25.18)"  >
<path style="stroke: none; stroke-width: 1; stroke-dasharray: none; stroke-linecap: butt; stroke-dashoffset: 0; stroke-linejoin: miter; stroke-miterlimit: 4; fill: rgb(244,248,246); fill-rule: nonzero; opacity: 1;" vector-effect="non-scaling-stroke"  transform=" translate(25.56, -51.82)" d="M 0 0 C 9.65152338 7.44462017 17.11894613 16.35683838 21 28 C 22.69481986 54.30230052 9.63092373 74.46924861 -7.17773438 93.59667969 C -8.78008114 95.40239396 -10.38872998 97.20224745 -12 99 C -12.92068089 100.03375801 -13.8412613 101.06760553 -14.76171875 102.1015625 C -20.37756849 108.37756849 -20.37756849 108.37756849 -23 111 C -26.80296762 111.1521187 -28.87696667 110.85825311 -31.921875 108.53125 C -37.44196335 103.14364377 -42.22444161 97.04270489 -47 91 C -47.61560791 90.23163818 -47.61560791 90.23163818 -48.24365234 89.44775391 C -63.46294992 70.43095736 -74.07627525 51.95099823 -72 27 C -71.22991865 23.49784658 -69.98267865 20.96841719 -68 18 C -67.16082031 16.66582031 -67.16082031 16.66582031 -66.3046875 15.3046875 C -51.43858805 -6.78380845 -23.47461165 -14.50395648 0 0 Z" stroke-linecap="round" />
</g>
		<g transform="matrix(1 0 0 1 5 -36.75)"  >
<path style="stroke: none; stroke-width: 1; stroke-dasharray: none; stroke-linecap: butt; stroke-dashoffset: 0; stroke-linejoin: miter; stroke-miterlimit: 4; fill: rgb(16,145,135); fill-rule: nonzero; opacity: 1;" vector-effect="non-scaling-stroke"  transform=" translate(-0.06, -29.5)" d="M 0 0 C 0.98033203 -0.020625 1.96066406 -0.04125 2.97070312 -0.0625 C 4.37545898 -0.07023437 4.37545898 -0.07023437 5.80859375 -0.078125 C 6.67154053 -0.0874707 7.5344873 -0.09681641 8.42358398 -0.10644531 C 9.48234741 0.06999512 9.48234741 0.06999512 10.5625 0.25 C 12.9919516 3.8941774 12.72429575 5.96241272 12.5625 10.25 C 13.8928125 10.0953125 13.8928125 10.0953125 15.25 9.9375 C 19.60188306 10.34805501 20.82223354 11.96168025 23.5625 15.25 C 24.91689668 17.95879335 24.62751451 20.25933268 24.5625 23.25 C 27.2025 23.58 29.8425 23.91 32.5625 24.25 C 32.5625 26.23 32.5625 28.21 32.5625 30.25 C 31.5725 30.58 30.5825 30.91 29.5625 31.25 C 30.2225 32.24 30.8825 33.23 31.5625 34.25 C 31.98364871 37.25718899 31.88685928 40.27889671 31.875 43.3125 C 31.89111328 44.14072266 31.90722656 44.96894531 31.92382812 45.82226562 C 31.92447266 46.61439453 31.92511719 47.40652344 31.92578125 48.22265625 C 31.92876221 48.94718994 31.93174316 49.67172363 31.93481445 50.41821289 C 31.5625 52.25 31.5625 52.25 28.5625 54.25 C 27.83284634 56.81282742 27.83284634 56.81282742 27.5625 59.25 C 24.5925 59.25 21.6225 59.25 18.5625 59.25 C 18.0675 56.28 18.0675 56.28 17.5625 53.25 C 5.3525 53.25 -6.8575 53.25 -19.4375 53.25 C -19.4375 55.23 -19.4375 57.21 -19.4375 59.25 C -22.4075 59.25 -25.3775 59.25 -28.4375 59.25 C -31.38114975 53.50250446 -31.87379023 48.90738207 -31.75 42.5 C -31.75322266 41.65050781 -31.75644531 40.80101562 -31.75976562 39.92578125 C -31.70525085 33.65162628 -31.70525085 33.65162628 -29.4375 30.25 C -30.4275 30.25 -31.4175 30.25 -32.4375 30.25 C -32.4375 28.27 -32.4375 26.29 -32.4375 24.25 C -30.1275 24.25 -27.8175 24.25 -25.4375 24.25 C -25.375625 23.05375 -25.31375 21.8575 -25.25 20.625 C -24.63799401 15.76343129 -22.96437813 13.61656549 -19.4375 10.25 C -18.57125 9.940625 -17.705 9.63125 -16.8125 9.3125 C -14.0248456 8.36907205 -14.0248456 8.36907205 -12.6875 4.6875 C -12.275 3.553125 -11.8625 2.41875 -11.4375 1.25 C -9.06813435 -1.11936565 -3.18181576 0.01666963 0 0 Z" stroke-linecap="round" />
</g>
		<g transform="matrix(1 0 0 1 -49 68)"  >
<path style="stroke: none; stroke-width: 1; stroke-dasharray: none; stroke-linecap: butt; stroke-dashoffset: 0; stroke-linejoin: miter; stroke-miterlimit: 4; fill: rgb(235,245,243); fill-rule: nonzero; opacity: 1;" vector-effect="non-scaling-stroke"  transform=" translate(-14.5, -21)" d="M 0 0 C 9.57 0 19.14 0 29 0 C 29 10.12320505 29 10.12320505 26.078125 13.82421875 C 25.46453125 14.62537109 24.8509375 15.42652344 24.21875 16.25195312 C 23.5690625 17.05568359 22.919375 17.85941406 22.25 18.6875 C 20.98347444 20.31570613 19.71782785 21.94459643 18.453125 23.57421875 C 17.5569043 24.70996338 17.5569043 24.70996338 16.64257812 25.86865234 C 14.61563113 28.49874261 12.78877193 31.20391459 11 34 C 12.10859375 33.97679687 13.2171875 33.95359375 14.359375 33.9296875 C 15.82290992 33.91092423 17.28645214 33.89272463 18.75 33.875 C 19.47960937 33.85824219 20.20921875 33.84148437 20.9609375 33.82421875 C 24.8044624 33.78927761 27.74606772 33.82500316 31 36 C 31 37.98 31 39.96 31 42 C 20.11 42 9.22 42 -2 42 C -2 34.12753453 -2 34.12753453 0.8515625 30.4765625 C 1.45613281 29.6825 2.06070313 28.8884375 2.68359375 28.0703125 C 3.32425781 27.26335937 3.96492188 26.45640625 4.625 25.625 C 5.86919012 24.01456603 7.11138989 22.40259233 8.3515625 20.7890625 C 8.9590332 20.0043457 9.56650391 19.21962891 10.19238281 18.41113281 C 12.96426231 14.71379598 15.4784697 10.87151882 18 7 C 12.06 7 6.12 7 0 7 C 0 4.69 0 2.38 0 0 Z" stroke-linecap="round" />
</g>
		<g transform="matrix(1 0 0 1 14.46 73.93)"  >
<path style="stroke: none; stroke-width: 1; stroke-dasharray: none; stroke-linecap: butt; stroke-dashoffset: 0; stroke-linejoin: miter; stroke-miterlimit: 4; fill: rgb(227,241,238); fill-rule: nonzero; opacity: 1;" vector-effect="non-scaling-stroke"  transform=" translate(5.04, -16.93)" d="M 0 0 C 3.69234961 1.3846311 6.58309259 2.86222256 9 6 C 9.34057617 8.72729492 9.34057617 8.72729492 9.29296875 11.98046875 C 9.28330078 13.14384766 9.27363281 14.30722656 9.26367188 15.50585938 C 9.23853516 16.72080078 9.21339844 17.93574219 9.1875 19.1875 C 9.16719727 21.02731445 9.16719727 21.02731445 9.14648438 22.90429688 C 9.11108741 25.93663664 9.0617076 28.96809996 9 32 C 8.15695313 32.06058594 7.31390625 32.12117188 6.4453125 32.18359375 C 5.34960938 32.26738281 4.25390625 32.35117188 3.125 32.4375 C 2.03445312 32.51871094 0.94390625 32.59992188 -0.1796875 32.68359375 C -2.94728971 32.83001703 -2.94728971 32.83001703 -5 34 C -13.98550725 34.43478261 -13.98550725 34.43478261 -17 32 C -19.49990479 27.87515709 -19.81910463 22.70324594 -19 18 C -17.9921875 16.26953125 -17.9921875 16.26953125 -16 15 C -13.20748417 14.62325482 -10.61220799 14.39808059 -7.8125 14.3125 C -7.06291016 14.27833984 -6.31332031 14.24417969 -5.54101562 14.20898438 C -3.69453162 14.12665706 -1.84729006 14.06164719 0 14 C 0.04254356 12.00045254 0.04080783 9.99958364 0 8 C -1.49743119 6.50256881 -2.98824239 6.66797307 -5.0625 6.4375 C -6.361875 6.293125 -7.66125 6.14875 -9 6 C -9.20625 6.639375 -9.4125 7.27875 -9.625 7.9375 C -11 10 -11 10 -14.125 10.75 C -15.548125 10.87375 -15.548125 10.87375 -17 11 C -17.40060526 7.49470398 -17.15413141 6.2260594 -15.125 3.25 C -10.88697774 -1.23731769 -5.84821692 -0.47083102 0 0 Z" stroke-linecap="round" />
</g>
		<g transform="matrix(1 0 0 1 5.5 -44)"  >
<path style="stroke: none; stroke-width: 1; stroke-dasharray: none; stroke-linecap: butt; stroke-dashoffset: 0; stroke-linejoin: miter; stroke-miterlimit: 4; fill: rgb(228,241,239); fill-rule: nonzero; opacity: 1;" vector-effect="non-scaling-stroke"  transform=" translate(-18, -7)" d="M 0 0 C 11.22 0 22.44 0 34 0 C 40 11 40 11 40 14 C 25.48 14 10.96 14 -4 14 C -3 6 -3 6 0 0 Z" stroke-linecap="round" />
</g>
		<g transform="matrix(1 0 0 1 47.5 73.49)"  >
<path style="stroke: none; stroke-width: 1; stroke-dasharray: none; stroke-linecap: butt; stroke-dashoffset: 0; stroke-linejoin: miter; stroke-miterlimit: 4; fill: rgb(235,244,242); fill-rule: nonzero; opacity: 1;" vector-effect="non-scaling-stroke"  transform=" translate(-14, -15.49)" d="M 0 0 C 8.23992322 -0.621881 8.23992322 -0.621881 11.0625 1.6875 C 12.12196863 4.30085596 12.23290982 6.20508215 12 9 C 12.99 9 13.98 9 15 9 C 15.99 6.03 16.98 3.06 18 0 C 20.97 0 23.94 0 27 0 C 26.66901098 3.64087921 25.62638311 5.61222239 23.375 8.375 C 21.39028344 11.06771486 21.00871924 11.88229022 20.75 15.375 C 22.25087848 19.7275476 24.506658 22.5348257 27.50390625 25.984375 C 29 28 29 28 29 31 C 25.59961015 31.35042185 22.3854069 31.5412406 19 31 C 16.375 28 16.375 28 15 25 C 13.08533633 25.12177688 13.08533633 25.12177688 11 26 C 10.608125 26.845625 10.21625 27.69125 9.8125 28.5625 C 8 31 8 31 5.8125 31.328125 C 3.523478 31.31381861 1.27847882 31.21495083 -1 31 C -0.00590252 26.92420035 1.33099843 24.47579861 4.1875 21.5 C 6.64820963 18.75905069 6.64820963 18.75905069 7.25 15.125 C 5.74222563 11.35556407 3.67352125 8.31522071 1.27734375 5.05078125 C 0 3 0 3 0 0 Z" stroke-linecap="round" />
</g>
		<g transform="matrix(1 0 0 1 -14 68)"  >
<path style="stroke: none; stroke-width: 1; stroke-dasharray: none; stroke-linecap: butt; stroke-dashoffset: 0; stroke-linejoin: miter; stroke-miterlimit: 4; fill: rgb(243,247,246); fill-rule: nonzero; opacity: 1;" vector-effect="non-scaling-stroke"  transform=" translate(-16.5, -21)" d="M 0 0 C 10.89 0 21.78 0 33 0 C 33 2.31 33 4.62 33 7 C 28.71 7 24.42 7 20 7 C 20 18.55 20 30.1 20 42 C 17.69 42 15.38 42 13 42 C 13 30.45 13 18.9 13 7 C 8.71 7 4.42 7 0 7 C 0 4.69 0 2.38 0 0 Z" stroke-linecap="round" />
</g>
		<g transform="matrix(1 0 0 1 6.5 -58.67)"  >
<path style="stroke: none; stroke-width: 1; stroke-dasharray: none; stroke-linecap: butt; stroke-dashoffset: 0; stroke-linejoin: miter; stroke-miterlimit: 4; fill: rgb(40,156,146); fill-rule: nonzero; opacity: 1;" vector-effect="non-scaling-stroke"  transform=" translate(-12, -7.33)" d="M 0 0 C 3.458176 -0.0868329 6.91607344 -0.14033282 10.375 -0.1875 C 11.35984375 -0.21263672 12.3446875 -0.23777344 13.359375 -0.26367188 C 14.77089844 -0.27817383 14.77089844 -0.27817383 16.2109375 -0.29296875 C 17.08024902 -0.3086792 17.94956055 -0.32438965 18.84521484 -0.34057617 C 19.55629395 -0.22818604 20.26737305 -0.1157959 21 0 C 23.4294516 3.6441774 23.16179575 5.71241272 23 10 C 24.98 10 26.96 10 29 10 C 28.34 10.66 27.68 11.32 27 12 C 26.01 12 25.02 12 24 12 C 24.33 12.99 24.66 13.98 25 15 C 15.1 15 5.2 15 -5 15 C -5 14.67 -5 14.34 -5 14 C 3.58 13.67 12.16 13.34 21 13 C 16.05 12.67 11.1 12.34 6 12 C 6 11.01 6 10.02 6 9 C 5.34 9 4.68 9 4 9 C 4 7.68 4 6.36 4 5 C 8.95 4.34 13.9 3.68 19 3 C 19 2.34 19 1.68 19 1 C 16.43663746 1.11446272 13.87486555 1.24119501 11.3125 1.375 C 10.2306543 1.42140625 10.2306543 1.42140625 9.12695312 1.46875 C 5.02789606 1.69335587 1.75631541 2.17740909 -2 4 C -1.34 2.68 -0.68 1.36 0 0 Z" stroke-linecap="round" />
</g>
		<g transform="matrix(1 0 0 1 70 73.5)"  >
<path style="stroke: none; stroke-width: 1; stroke-dasharray: none; stroke-linecap: butt; stroke-dashoffset: 0; stroke-linejoin: miter; stroke-miterlimit: 4; fill: rgb(242,247,245); fill-rule: nonzero; opacity: 1;" vector-effect="non-scaling-stroke"  transform=" translate(-3.5, -15.5)" d="M 0 0 C 2.31 0 4.62 0 7 0 C 7 10.23 7 20.46 7 31 C 4.69 31 2.38 31 0 31 C 0 20.77 0 10.54 0 0 Z" stroke-linecap="round" />
</g>
		<g transform="matrix(1 0 0 1 12.09 67.46)"  >
<path style="stroke: none; stroke-width: 1; stroke-dasharray: none; stroke-linecap: butt; stroke-dashoffset: 0; stroke-linejoin: miter; stroke-miterlimit: 4; fill: rgb(50,159,150); fill-rule: nonzero; opacity: 1;" vector-effect="non-scaling-stroke"  transform=" translate(-1.59, -4.46)" d="M 0 0 C 6.0546875 -0.1953125 6.0546875 -0.1953125 8 0 C 10 2 10 2 10.1875 5.0625 C 10 8 10 8 9 9 C 6.46950598 9.07313567 3.96695163 9.09247527 1.4375 9.0625 C 0.37112305 9.05573242 0.37112305 9.05573242 -0.71679688 9.04882812 C -2.47790013 9.03700864 -4.23896036 9.01907263 -6 9 C -5.01 8.67 -4.02 8.34 -3 8 C -3 7.34 -3 6.68 -3 6 C -4.32 5.67 -5.64 5.34 -7 5 C -6.030625 4.54625 -5.06125 4.0925 -4.0625 3.625 C -0.92920418 2.34213779 -0.92920418 2.34213779 0 0 Z" stroke-linecap="round" />
</g>
		<g transform="matrix(1 0 0 1 14.47 80.09)"  >
<path style="stroke: none; stroke-width: 1; stroke-dasharray: none; stroke-linecap: butt; stroke-dashoffset: 0; stroke-linejoin: miter; stroke-miterlimit: 4; fill: rgb(29,149,139); fill-rule: nonzero; opacity: 1;" vector-effect="non-scaling-stroke"  transform=" translate(-5.97, -4.09)" d="M 0 0 C 3.96 0 7.92 0 12 0 C 11.25 5.75 11.25 5.75 9 8 C 6.28545044 8.32752234 3.74769241 8.1308425 1 8 C 0 7 0 7 -0.0625 3.4375 C -0.041875 2.303125 -0.02125 1.16875 0 0 Z" stroke-linecap="round" />
</g>
		<g transform="matrix(1 0 0 1 4.5 -24)"  >
<path style="stroke: none; stroke-width: 1; stroke-dasharray: none; stroke-linecap: butt; stroke-dashoffset: 0; stroke-linejoin: miter; stroke-miterlimit: 4; fill: rgb(196,225,222); fill-rule: nonzero; opacity: 1;" vector-effect="non-scaling-stroke"  transform=" translate(-10, -2)" d="M 0 0 C 6.6 0 13.2 0 20 0 C 20 1.32 20 2.64 20 4 C 13.4 4 6.8 4 0 4 C 0 2.68 0 1.36 0 0 Z" stroke-linecap="round" />
</g>
		<g transform="matrix(1 0 0 1 -15.52 -25.67)"  >
<path style="stroke: none; stroke-width: 1; stroke-dasharray: none; stroke-linecap: butt; stroke-dashoffset: 0; stroke-linejoin: miter; stroke-miterlimit: 4; fill: rgb(203,229,227); fill-rule: nonzero; opacity: 1;" vector-effect="non-scaling-stroke"  transform=" translate(0.08, -4.39)" d="M 0 0 C 1.4540625 0.0309375 1.4540625 0.0309375 2.9375 0.0625 C 3.2675 2.7025 3.5975 5.3425 3.9375 8.0625 C 0.65053767 8.86203138 -0.77273192 9.15908936 -4.0625 8.0625 C -4.10491723 5.72955225 -4.10342937 3.39547433 -4.0625 1.0625 C -3.0625 0.0625 -3.0625 0.0625 0 0 Z" stroke-linecap="round" />
</g>
		<g transform="matrix(1 0 0 1 5 -58)"  >
<path style="stroke: none; stroke-width: 1; stroke-dasharray: none; stroke-linecap: butt; stroke-dashoffset: 0; stroke-linejoin: miter; stroke-miterlimit: 4; fill: rgb(139,201,195); fill-rule: nonzero; opacity: 1;" vector-effect="non-scaling-stroke"  transform=" translate(-6.5, -3)" d="M 0 0 C 4.29 0 8.58 0 13 0 C 13 1.32 13 2.64 13 4 C 12.01 4 11.02 4 10 4 C 10 4.66 10 5.32 10 6 C 9.34 6 8.68 6 8 6 C 8 5.34 8 4.68 8 4 C 7.01 4 6.02 4 5 4 C 5 4.66 5 5.32 5 6 C 4.34 6 3.68 6 3 6 C 3 5.34 3 4.68 3 4 C 2.01 4 1.02 4 0 4 C 0 2.68 0 1.36 0 0 Z" stroke-linecap="round" />
</g>
		<g transform="matrix(1 0 0 1 69.5 49.97)"  >
<path style="stroke: none; stroke-width: 1; stroke-dasharray: none; stroke-linecap: butt; stroke-dashoffset: 0; stroke-linejoin: miter; stroke-miterlimit: 4; fill: rgb(215,236,233); fill-rule: nonzero; opacity: 1;" vector-effect="non-scaling-stroke"  transform=" translate(0.56, -4.03)" d="M 0 0 C 1.134375 0.020625 2.26875 0.04125 3.4375 0.0625 C 3.4375 2.3725 3.4375 4.6825 3.4375 7.0625 C 1.1275 7.3925 -1.1825 7.7225 -3.5625 8.0625 C -3.94313221 5.7364143 -4.27519945 3.40194736 -4.5625 1.0625 C -3.5625 0.0625 -3.5625 0.0625 0 0 Z" stroke-linecap="round" />
</g>
		<g transform="matrix(1 0 0 1 24.5 -25.47)"  >
<path style="stroke: none; stroke-width: 1; stroke-dasharray: none; stroke-linecap: butt; stroke-dashoffset: 0; stroke-linejoin: miter; stroke-miterlimit: 4; fill: rgb(221,238,235); fill-rule: nonzero; opacity: 1;" vector-effect="non-scaling-stroke"  transform=" translate(-4, -3.53)" d="M 0 0 C 2.31 0 4.62 0 7 0 C 7.38133299 1.9914056 7.71325582 3.99279077 8 6 C 7 7 7 7 3.4375 7.0625 C 2.303125 7.041875 1.16875 7.02125 0 7 C 0 4.69 0 2.38 0 0 Z" stroke-linecap="round" />
</g>
</g>
</g>
</svg>