<?xml version="1.0" encoding="UTF-8"?>
<svg version="1.1" xmlns="http://www.w3.org/2000/svg" width="456" height="454">
<path d="M0 0 C150.48 0 300.96 0 456 0 C456 149.82 456 299.64 456 454 C305.52 454 155.04 454 0 454 C0 304.18 0 154.36 0 0 Z " fill="#FFFFFF" transform="translate(0,0)"/>
<path d="M0 0 C64.02 0 128.04 0 194 0 C194 64.68 194 129.36 194 196 C129.98 196 65.96 196 0 196 C0 131.32 0 66.64 0 0 Z " fill="#018B80" transform="translate(134,126)"/>
<path d="M0 0 C7.64774928 6.5390519 13.30842962 13.8672718 14.51171875 24.1015625 C14.94994892 46.16774032 1.41696809 61.80606033 -12.52734375 77.45019531 C-14.40552702 79.55833211 -16.25597196 81.69039368 -18.109375 83.8203125 C-19.02525487 84.86267102 -19.94154324 85.90467227 -20.859375 86.9453125 C-25.60555081 86.50088261 -27.39731273 84.79399587 -30.484375 81.2578125 C-30.90968506 80.77159424 -31.33499512 80.28537598 -31.77319336 79.78442383 C-33.15452442 78.18666998 -34.51026473 76.57034465 -35.859375 74.9453125 C-36.31683105 74.39584961 -36.77428711 73.84638672 -37.24560547 73.28027344 C-49.22685845 58.75473893 -60.8888535 44.23507792 -60.23046875 24.5234375 C-59.08292503 13.45870018 -53.00552714 5.98724069 -44.5546875 -0.9453125 C-31.2266687 -10.44556119 -13.16073536 -9.45703115 0 0 Z " fill="#F8FAF8" transform="translate(255.859375,161.0546875)"/>
<path d="M0 0 C1.1127832 -0.01836914 1.1127832 -0.01836914 2.24804688 -0.03710938 C4.18763629 -0.04238478 6.1267371 0.06561098 8.0625 0.1875 C10.0625 2.1875 10.0625 2.1875 10.1875 5.3125 C10.14625 6.26125 10.105 7.21 10.0625 8.1875 C10.805 8.105 11.5475 8.0225 12.3125 7.9375 C15.0625 8.1875 15.0625 8.1875 17.3125 9.8125 C19.38715015 12.62809663 19.74907358 14.73980934 20.0625 18.1875 C22.0425 18.5175 24.0225 18.8475 26.0625 19.1875 C26.0625 20.8375 26.0625 22.4875 26.0625 24.1875 C25.0725 24.1875 24.0825 24.1875 23.0625 24.1875 C23.7225 25.1775 24.3825 26.1675 25.0625 27.1875 C25.2578125 30.54296875 25.2578125 30.54296875 25.1875 34.375 C25.16945313 35.64730469 25.15140625 36.91960937 25.1328125 38.23046875 C25.10960937 39.20628906 25.08640625 40.18210938 25.0625 41.1875 C24.0725 41.6825 24.0725 41.6825 23.0625 42.1875 C22.40694881 44.71483235 22.40694881 44.71483235 22.0625 47.1875 C19.7525 47.1875 17.4425 47.1875 15.0625 47.1875 C14.7325 45.5375 14.4025 43.8875 14.0625 42.1875 C4.4925 42.1875 -5.0775 42.1875 -14.9375 42.1875 C-15.4325 44.6625 -15.4325 44.6625 -15.9375 47.1875 C-17.9175 47.1875 -19.8975 47.1875 -21.9375 47.1875 C-24.59911306 42.60166008 -25.32364377 39.28535692 -25.25 34 C-25.24613281 32.78957031 -25.24226562 31.57914063 -25.23828125 30.33203125 C-24.9375 27.1875 -24.9375 27.1875 -22.9375 24.1875 C-23.9275 24.1875 -24.9175 24.1875 -25.9375 24.1875 C-25.9375 22.5375 -25.9375 20.8875 -25.9375 19.1875 C-23.9575 19.1875 -21.9775 19.1875 -19.9375 19.1875 C-19.855 18.115 -19.7725 17.0425 -19.6875 15.9375 C-18.87258472 11.86292358 -18.21629877 10.62317909 -14.9375 8.1875 C-14.23625 8.06375 -13.535 7.94 -12.8125 7.8125 C-12.19375 7.60625 -11.575 7.4 -10.9375 7.1875 C-9.69992123 4.22489474 -9.69992123 4.22489474 -8.9375 1.1875 C-6.89483571 -0.85516429 -2.80058566 0.00242056 0 0 Z " fill="#0B8F85" transform="translate(232.9375,167.8125)"/>
<path d="M0 0 C7.92 0 15.84 0 24 0 C24 6.74931839 24 6.74931839 21.2265625 10.41796875 C20.6490625 11.19720703 20.0715625 11.97644531 19.4765625 12.77929688 C18.86554688 13.57400391 18.25453125 14.36871094 17.625 15.1875 C16.42965147 16.78512929 15.23433753 18.38278446 14.0390625 19.98046875 C13.23782959 21.03077271 13.23782959 21.03077271 12.42041016 22.10229492 C11.22718574 23.69647392 10.10456273 25.3431559 9 27 C10.60681641 27.09087891 10.60681641 27.09087891 12.24609375 27.18359375 C13.64324391 27.26798537 15.04037857 27.35263406 16.4375 27.4375 C17.14455078 27.47681641 17.85160156 27.51613281 18.58007812 27.55664062 C23.88671875 27.88671875 23.88671875 27.88671875 25 29 C25 30.65 25 32.3 25 34 C16.42 34 7.84 34 -1 34 C-1 28.37609723 -1 28.37609723 1.484375 25.00390625 C2.26941406 23.91819336 2.26941406 23.91819336 3.0703125 22.81054688 C3.90175781 21.69776367 3.90175781 21.69776367 4.75 20.5625 C5.8287185 19.08506856 6.90685458 17.6072117 7.984375 16.12890625 C8.70705566 15.15546265 8.70705566 15.15546265 9.44433594 14.16235352 C11.36641249 11.49069124 13.17435722 8.73846417 15 6 C10.05 6 5.1 6 0 6 C0 4.02 0 2.04 0 0 Z " fill="#F0F7F5" transform="translate(178,258)"/>
<path d="M0 0 C3.25498851 1.38207845 6.36140815 2.72281631 8 6 C8.08372659 7.52148326 8.10730027 9.04655778 8.09765625 10.5703125 C8.09443359 11.46621094 8.09121094 12.36210937 8.08789062 13.28515625 C8.07951172 14.22230469 8.07113281 15.15945313 8.0625 16.125 C8.05798828 17.06988281 8.05347656 18.01476562 8.04882812 18.98828125 C8.03702357 21.32558387 8.02055759 23.66276061 8 26 C5 26 2 26 -1 26 C-1.66 26.33 -2.32 26.66 -3 27 C-6.79877599 27.35173852 -9.14360153 27.52701444 -12.4375 25.5 C-14.78057502 21.75107996 -14.48773804 19.38964238 -14 15 C-12.859375 13.296875 -12.859375 13.296875 -11 12 C-8.08203125 11.48828125 -8.08203125 11.48828125 -4.8125 11.3125 C-3.18248047 11.21388672 -3.18248047 11.21388672 -1.51953125 11.11328125 C-0.68808594 11.07589844 0.14335937 11.03851563 1 11 C0.67 9.35 0.34 7.7 0 6 C-2.91634129 5.7497843 -2.91634129 5.7497843 -6 6 C-6.99 7.485 -6.99 7.485 -8 9 C-10.625 9.1875 -10.625 9.1875 -13 9 C-12.71897086 5.62765029 -12.19628348 4.21360261 -9.875 1.6875 C-6.18670722 -0.4773675 -4.22708707 -0.58304649 0 0 Z " fill="#ECF5F3" transform="translate(244,266)"/>
<path d="M0 0 C1.5631897 0.00785522 1.5631897 0.00785522 3.15795898 0.01586914 C4.28266602 0.0190918 5.40737305 0.02231445 6.56616211 0.02563477 C7.75016602 0.03401367 8.93416992 0.04239258 10.15405273 0.05102539 C11.34192383 0.05553711 12.52979492 0.06004883 13.75366211 0.06469727 C16.69967499 0.07652864 19.64558954 0.09301252 22.59155273 0.11352539 C23.43004078 1.56890107 24.26219208 3.02792912 25.09155273 4.48852539 C25.55561523 5.30063477 26.01967773 6.11274414 26.49780273 6.94946289 C27.59155273 9.11352539 27.59155273 9.11352539 27.59155273 11.11352539 C16.04155273 11.11352539 4.49155273 11.11352539 -7.40844727 11.11352539 C-5.23509483 0.24676321 -5.23509483 0.24676321 0 0 Z " fill="#EBF4F2" transform="translate(223.408447265625,179.886474609375)"/>
<path d="M0 0 C8.58 0 17.16 0 26 0 C26 1.98 26 3.96 26 6 C22.7 6 19.4 6 16 6 C16 15.24 16 24.48 16 34 C14.02 34 12.04 34 10 34 C10 24.76 10 15.52 10 6 C6.7 6 3.4 6 0 6 C0 4.02 0 2.04 0 0 Z " fill="#F5F8F7" transform="translate(205,258)"/>
<path d="M0 0 C3.3125 -0.3125 3.3125 -0.3125 7 0 C8.95578117 2.39740918 10 3.87586608 10 7 C10.66 7 11.32 7 12 7 C12.309375 6.21625 12.61875 5.4325 12.9375 4.625 C14 2 14 2 15 0 C17.31 0 19.62 0 22 0 C20.94816387 3.06785538 19.97070373 5.03348145 17.8125 7.5 C15.80122107 9.7985923 15.80122107 9.7985923 15.875 12.3125 C17.31111218 15.74321244 19.38572897 18.35467353 21.72265625 21.23046875 C23 23 23 23 23 25 C19.75 25.375 19.75 25.375 16 25 C13.5625 22 13.5625 22 12 19 C11.01 19.33 10.02 19.66 9 20 C8.5875 20.845625 8.175 21.69125 7.75 22.5625 C7.1725 23.366875 6.595 24.17125 6 25 C2.3125 25.3125 2.3125 25.3125 -1 25 C0.06802648 21.69882723 1.35216987 19.50399286 3.6875 17 C6.2160126 14.30829957 6.2160126 14.30829957 6.125 11.5625 C4.80186547 8.54869357 3.0820194 6.13595113 1.05859375 3.55078125 C0 2 0 2 0 0 Z " fill="#F1F7F5" transform="translate(256,267)"/>
<path d="M0 0 C2.62527189 -0.05382106 5.24944713 -0.09358313 7.875 -0.125 C8.62136719 -0.14175781 9.36773437 -0.15851563 10.13671875 -0.17578125 C12.09194461 -0.1933959 14.04742021 -0.10320189 16 0 C18 2 18 2 18.125 5.125 C18.08375 6.07375 18.0425 7.0225 18 8 C19.65 8 21.3 8 23 8 C21.02 8.99 21.02 8.99 19 10 C19.33 10.66 19.66 11.32 20 12 C12.08 12 4.16 12 -4 12 C-4 11.67 -4 11.34 -4 11 C-0.535 10.505 -0.535 10.505 3 10 C2.67 8.35 2.34 6.7 2 5 C4.64 4.01 7.28 3.02 10 2 C6.7 1.67 3.4 1.34 0 1 C0 0.67 0 0.34 0 0 Z " fill="#249B91" transform="translate(225,168)"/>
<path d="M0 0 C1.98 0 3.96 0 6 0 C6 8.25 6 16.5 6 25 C4.02 25 2.04 25 0 25 C0 16.75 0 8.5 0 0 Z " fill="#F3F8F6" transform="translate(282,267)"/>
<path d="M0 0 C5.28 0 10.56 0 16 0 C16 0.33 16 0.66 16 1 C12.04 1.99 8.08 2.98 4 4 C4 5.32 4 6.64 4 8 C10.93 8.495 10.93 8.495 18 9 C18 9.33 18 9.66 18 10 C14.9166866 10.02911321 11.83340875 10.04683682 8.75 10.0625 C7.87730469 10.07087891 7.00460938 10.07925781 6.10546875 10.08789062 C5.26113281 10.09111328 4.41679687 10.09433594 3.546875 10.09765625 C2.77182617 10.10289307 1.99677734 10.10812988 1.19824219 10.11352539 C-0.99861574 10.00007149 -2.87768972 9.55072264 -5 9 C-5.99 9 -6.98 9 -8 9 C-6 7 -6 7 -4 6.75 C-3.01 6.37875 -3.01 6.37875 -2 6 C-1.34 4.02 -0.68 2.04 0 0 Z " fill="#088C81" transform="translate(224,169)"/>
<path d="M0 0 C3 -0.3125 3 -0.3125 6 0 C6.66 0.66 7.32 1.32 8 2 C7.625 4.625 7.625 4.625 7 7 C3.7 7 0.4 7 -3 7 C-3 6.34 -3 5.68 -3 5 C-3.99 4.67 -4.98 4.34 -6 4 C-5.38125 3.896875 -4.7625 3.79375 -4.125 3.6875 C-1.63473516 3.12474627 -1.63473516 3.12474627 0 0 Z " fill="#2A9B92" transform="translate(238,271)"/>
<path d="M0 0 C-0.75 4.75 -0.75 4.75 -3 7 C-6.0625 7.1875 -6.0625 7.1875 -9 7 C-10 6 -10 6 -10.0625 3.4375 C-10.041875 2.633125 -10.02125 1.82875 -10 1 C-6.78548731 -0.60725635 -3.56387464 -0.05748185 0 0 Z " fill="#1A948A" transform="translate(246,281)"/>
<path d="M0 0 C5.28 0 10.56 0 16 0 C16 0.99 16 1.98 16 3 C10.72 3 5.44 3 0 3 C0 2.01 0 1.02 0 0 Z " fill="#D1E7E5" transform="translate(225,200)"/>
<path d="M0 0 C1.2065625 0.0309375 1.2065625 0.0309375 2.4375 0.0625 C3.5625 4.8125 3.5625 4.8125 2.4375 7.0625 C0.7875 6.7325 -0.8625 6.4025 -2.5625 6.0625 C-2.94468767 4.40635343 -3.27645102 2.73792976 -3.5625 1.0625 C-2.5625 0.0625 -2.5625 0.0625 0 0 Z " fill="#E0EFED" transform="translate(216.5625,196.9375)"/>
<path d="M0 0 C1.67542976 0.28604898 3.34385343 0.61781233 5 1 C5 2.65 5 4.3 5 6 C3.34385343 6.38218767 1.67542976 6.71395102 0 7 C-1 6 -1 6 -1.125 3.5 C-1 1 -1 1 0 0 Z " fill="#EBF5F3" transform="translate(283,257)"/>
<path d="M0 0 C1.2065625 0.0309375 1.2065625 0.0309375 2.4375 0.0625 C2.81968767 1.71864657 3.15145102 3.38707024 3.4375 5.0625 C2.4375 6.0625 2.4375 6.0625 -0.125 6.125 C-1.3315625 6.0940625 -1.3315625 6.0940625 -2.5625 6.0625 C-2.94468767 4.40635343 -3.27645102 2.73792976 -3.5625 1.0625 C-2.5625 0.0625 -2.5625 0.0625 0 0 Z " fill="#E6F2F0" transform="translate(248.5625,196.9375)"/>
<path d="M0 0 C3.3 0 6.6 0 10 0 C10 0.99 10 1.98 10 3 C9.34 3 8.68 3 8 3 C8 3.66 8 4.32 8 5 C7.34 5 6.68 5 6 5 C6 4.34 6 3.68 6 3 C5.34 3 4.68 3 4 3 C4 3.66 4 4.32 4 5 C3.34 5 2.68 5 2 5 C2 4.34 2 3.68 2 3 C1.34 3 0.68 3 0 3 C0 2.01 0 1.02 0 0 Z " fill="#95CEC8" transform="translate(228,172)"/>
</svg>
