<!-- Generated by IcoMoon.io -->
<svg version="1.1" xmlns="http://www.w3.org/2000/svg" width="40" height="32" viewBox="0 0 40 32">
<path d="M2.425 0.319c-0.65-0.512-1.594-0.394-2.106 0.256s-0.394 1.594 0.256 2.106l37 29c0.65 0.513 1.594 0.394 2.106-0.256s0.394-1.594-0.256-2.106l-5.638-4.419c0.013-0.025 0.025-0.056 0.038-0.081 0.325-0.719 0.194-1.563-0.331-2.15l-0.462-0.519c-1.95-2.2-3.031-5.031-3.031-7.975v-1.175c0-4.838-3.438-8.875-8-9.8v-1.2c0-1.106-0.894-2-2-2s-2 0.894-2 2v1.2c-2.662 0.538-4.938 2.138-6.375 4.331l-9.2-7.213zM25.387 26l-15.387-12.119v0.3c0 2.937-1.081 5.775-3.031 7.975l-0.463 0.519c-0.525 0.587-0.65 1.431-0.331 2.15s1.038 1.175 1.825 1.175h17.387zM22.831 30.831c0.75-0.75 1.169-1.769 1.169-2.831h-8c0 1.063 0.419 2.081 1.169 2.831s1.769 1.169 2.831 1.169 2.081-0.419 2.831-1.169z"></path>
</svg>
