<!-- Generated by IcoMoon.io -->
<svg version="1.1" xmlns="http://www.w3.org/2000/svg" width="32" height="32" viewBox="0 0 32 32">
<path d="M25.333 28h-18.667v1.333c0 0.736-0.597 1.333-1.333 1.333h-1.333c-0.736 0-1.333-0.597-1.333-1.333v-12l3.223-5.372c0.482-0.803 1.35-1.295 2.287-1.295h15.647c0.937 0 1.805 0.491 2.287 1.295l3.223 5.372v12c0 0.736-0.597 1.333-1.333 1.333h-1.333c-0.736 0-1.333-0.597-1.333-1.333v-1.333zM5.777 17.333h20.447l-2.4-4h-15.647l-2.4 4zM8.667 24c1.105 0 2-0.895 2-2s-0.895-2-2-2c-1.105 0-2 0.895-2 2s0.895 2 2 2zM23.333 24c1.105 0 2-0.895 2-2s-0.895-2-2-2c-1.105 0-2 0.895-2 2s0.895 2 2 2zM7.252 4.586l1.414-1.414 1.414 1.414c0.362 0.362 0.586 0.862 0.586 1.414 0 1.105-0.895 2-2 2s-2-0.895-2-2c0-0.552 0.224-1.052 0.586-1.414zM14.586 4.586l1.414-1.414 1.414 1.414c0.362 0.362 0.586 0.862 0.586 1.414 0 1.105-0.895 2-2 2s-2-0.895-2-2c0-0.552 0.224-1.052 0.586-1.414zM21.919 4.586l1.414-1.414 1.414 1.414c0.362 0.362 0.586 0.862 0.586 1.414 0 1.105-0.895 2-2 2s-2-0.895-2-2c0-0.552 0.224-1.052 0.586-1.414z"></path>
</svg>
