<!-- Generated by IcoMoon.io -->
<svg version="1.1" xmlns="http://www.w3.org/2000/svg" width="32" height="32" viewBox="0 0 32 32">
<path d="M16.001 6.038c3.132-2.811 7.972-2.718 10.989 0.305s3.121 7.84 0.315 10.981l-11.305 11.323-11.305-11.323c-2.806-3.141-2.701-7.965 0.315-10.981 3.019-3.019 7.85-3.121 10.992-0.305zM25.103 8.227c-1.999-2.003-5.226-2.084-7.32-0.204l-1.78 1.598-1.781-1.597c-2.1-1.882-5.321-1.8-7.326 0.205-1.986 1.986-2.086 5.168-0.256 7.269l9.36 9.375 9.36-9.375c1.831-2.102 1.732-5.277-0.257-7.271z"></path>
</svg>
