<?xml version="1.0" encoding="iso-8859-1"?>
<!-- Uploaded to: SVG Repo, www.svgrepo.com, Generator: SVG Repo Mixer Tools -->
<svg fill="#000000" version="1.1" id="Layer_1" xmlns="http://www.w3.org/2000/svg" xmlns:xlink="http://www.w3.org/1999/xlink" 
	 viewBox="0 0 512 512" xml:space="preserve">
<g>
	<g>
		<rect y="368.327" width="412.735" height="15.673"/>
	</g>
</g>
<g>
	<g>
		<rect x="99.265" y="420.571" width="412.735" height="15.673"/>
	</g>
</g>
<g>
	<g>
		<path d="M489.375,311.171L318.606,145.739l-46.053,46.053l-68.875-66.962L17.338,311.171H0v15.673h512v-15.673H489.375z
			 M39.504,311.171l94.354-94.354h85.57v-15.673h-69.896l54.299-54.299l63.321,61.59l105.7,102.736H39.504z M395.34,311.171
			L283.792,202.72l34.99-34.989l29.097,28.188h-29.185v15.673h45.364l102.79,99.579H395.34z"/>
	</g>
</g>
<g>
	<g>
		<path d="M88.816,23.51c-36.01,0-65.306,29.297-65.306,65.306s29.296,65.306,65.306,65.306s65.306-29.297,65.306-65.306
			S124.827,23.51,88.816,23.51z M88.816,138.449c-27.367,0-49.633-22.266-49.633-49.633s22.266-49.633,49.633-49.633
			s49.633,22.266,49.633,49.633S116.183,138.449,88.816,138.449z"/>
	</g>
</g>
<g>
	<g>
		<path d="M444.082,49.633h-2.74c0.085-0.868,0.127-1.74,0.127-2.612c0-15.845-12.891-28.735-28.735-28.735H276.898
			c-15.844,0-28.735,12.89-28.735,28.735c0,15.845,12.891,28.735,28.735,28.735h44.536c-0.085,0.868-0.127,1.74-0.127,2.612
			c0,15.845,12.891,28.735,28.735,28.735h94.041c15.844,0,28.735-12.89,28.735-28.735S459.925,49.633,444.082,49.633z
			 M444.082,91.429h-94.041c-7.203,0-13.061-5.859-13.061-13.061c0-2.167,0.624-4.321,1.907-6.585l6.631-11.701h-68.62
			c-7.202,0-13.061-5.859-13.061-13.061c0-7.203,5.859-13.061,13.061-13.061h135.837c7.203,0,13.061,5.859,13.061,13.061
			c0,2.167-0.624,4.321-1.907,6.585l-6.631,11.701h26.824c7.203,0,13.061,5.859,13.061,13.061
			C457.143,85.57,451.284,91.429,444.082,91.429z"/>
	</g>
</g>
<g>
	<g>
		<rect x="26.122" y="462.367" width="31.347" height="15.673"/>
	</g>
</g>
<g>
	<g>
		<rect x="99.265" y="472.816" width="31.347" height="15.673"/>
	</g>
</g>
<g>
	<g>
		<rect x="193.306" y="457.143" width="31.347" height="15.674"/>
	</g>
</g>
<g>
	<g>
		<rect x="287.347" y="478.041" width="31.347" height="15.673"/>
	</g>
</g>
<g>
	<g>
		<rect x="360.49" y="457.143" width="31.347" height="15.674"/>
	</g>
</g>
<g>
	<g>
		<rect x="444.082" y="467.592" width="31.347" height="15.673"/>
	</g>
</g>
</svg>