<!-- Generated by IcoMoon.io -->
<svg version="1.1" xmlns="http://www.w3.org/2000/svg" width="32" height="32" viewBox="0 0 32 32">
<path d="M29.333 18v10c0 0.736-0.597 1.333-1.333 1.333h-1.333c-0.736 0-1.333-0.597-1.333-1.333v-1.333h-18.667v1.333c0 0.736-0.597 1.333-1.333 1.333h-1.333c-0.736 0-1.333-0.597-1.333-1.333v-10l-1.657-0.414c-0.594-0.148-1.010-0.682-1.010-1.294v-0.959c0-0.368 0.298-0.667 0.667-0.667h2.5l2.851-7.603c0.39-1.041 1.385-1.73 2.497-1.73h14.971c1.112 0 2.107 0.69 2.497 1.73l2.851 7.603h2.5c0.368 0 0.667 0.299 0.667 0.667v0.959c0 0.612-0.416 1.145-1.010 1.294l-1.657 0.414zM5.333 20v2.667c0 0.736 0.597 1.333 1.333 1.333h4.327c0.11 0 0.218-0.027 0.314-0.079 0.325-0.174 0.447-0.577 0.274-0.902h0c-1.076-2.013-3.159-3.019-6.248-3.019zM26.667 20c-3.089 0-5.172 1.006-6.248 3.019h0c-0.174 0.325-0.051 0.729 0.273 0.902 0.097 0.052 0.205 0.079 0.314 0.079h4.327c0.736 0 1.333-0.597 1.333-1.333v-2.667zM8 8l-2.082 6.245c-0.045 0.136-0.068 0.278-0.068 0.422 0 0.736 0.597 1.333 1.333 1.333h17.634c0.143 0 0.286-0.023 0.422-0.068 0.699-0.233 1.076-0.988 0.843-1.687l-2.082-6.245h-16z"></path>
</svg>
