<!-- Generated by IcoMoon.io -->
<svg version="1.1" xmlns="http://www.w3.org/2000/svg" width="32" height="32" viewBox="0 0 32 32">
<path d="M8.931 8.931c-1.094 1.094-1.881 2.375-2.362 3.737-0.369 1.044-1.513 1.588-2.55 1.219s-1.587-1.512-1.219-2.55c0.675-1.919 1.775-3.713 3.3-5.237 5.45-5.45 14.269-5.469 19.738-0.063l2.6-2.6c0.431-0.431 1.075-0.556 1.637-0.325s0.925 0.781 0.925 1.387v8c0 0.831-0.669 1.5-1.5 1.5h-0.525c0 0 0 0 0 0h-7.475c-0.606 0-1.156-0.363-1.387-0.925s-0.106-1.206 0.325-1.637l2.569-2.569c-3.913-3.844-10.194-3.825-14.081 0.063zM1 19.5c0-0.831 0.669-1.5 1.5-1.5h8c0.606 0 1.156 0.363 1.387 0.925s0.106 1.206-0.325 1.637l-2.569 2.569c3.912 3.844 10.194 3.825 14.081-0.063 1.094-1.094 1.881-2.375 2.363-3.738 0.369-1.044 1.512-1.587 2.55-1.219s1.587 1.512 1.219 2.55c-0.675 1.913-1.775 3.706-3.306 5.238-5.45 5.45-14.269 5.469-19.738 0.063l-2.6 2.6c-0.431 0.431-1.075 0.556-1.637 0.325s-0.925-0.781-0.925-1.387v-7.994z"></path>
</svg>
