<!-- Generated by IcoMoon.io -->
<svg version="1.1" xmlns="http://www.w3.org/2000/svg" width="32" height="32" viewBox="0 0 32 32">
<path d="M16 1.333l10.956 2.435c0.61 0.136 1.044 0.677 1.044 1.302v13.316c0 2.675-1.337 5.173-3.562 6.656l-8.438 5.625-8.438-5.625c-2.226-1.484-3.562-3.982-3.562-6.656v-13.316c0-0.625 0.434-1.166 1.044-1.302l10.956-2.435zM16 4.065l-9.333 2.074v12.246c0 1.783 0.891 3.448 2.375 4.438l6.958 4.639 6.958-4.639c1.484-0.989 2.375-2.654 2.375-4.438v-12.246l-9.333-2.074zM21.937 10.962l1.886 1.886-8.485 8.485-5.657-5.657 1.886-1.886 3.77 3.77 6.601-6.599z"></path>
</svg>
