<!-- Generated by IcoMoon.io -->
<svg version="1.1" xmlns="http://www.w3.org/2000/svg" width="28" height="32" viewBox="0 0 28 32">
<path d="M6 8c0 4.418 3.582 8 8 8s8-3.582 8-8v0c0-4.418-3.582-8-8-8s-8 3.582-8 8v0zM11.906 20.512l1.162 1.938-2.081 7.744-2.25-9.181c-0.125-0.506-0.613-0.837-1.119-0.706-4.375 1.094-7.619 5.056-7.619 9.775 0 1.063 0.863 1.919 1.919 1.919h8.231c0 0 0 0 0.006 0h7.688c0 0 0 0 0.006 0h8.231c1.063 0 1.919-0.863 1.919-1.919 0-4.719-3.244-8.681-7.619-9.775-0.506-0.125-0.994 0.206-1.119 0.706l-2.25 9.181-2.081-7.744 1.163-1.938c0.4-0.669-0.081-1.512-0.856-1.512h-2.469c-0.775 0-1.256 0.85-0.856 1.512z"></path>
</svg>
