<?xml version="1.0" encoding="iso-8859-1"?>
<!-- Uploaded to: SVG Repo, www.svgrepo.com, Generator: SVG Repo Mixer Tools -->
<svg fill="#000000" version="1.1" id="Layer_1" xmlns="http://www.w3.org/2000/svg" xmlns:xlink="http://www.w3.org/1999/xlink" 
	 viewBox="0 0 512 512" xml:space="preserve">
<g>
	<g>
		<g>
			<path d="M102.4,354.133c-9.421,0-17.067,7.646-17.067,17.067c0,9.421,7.646,17.067,17.067,17.067
				c9.421,0,17.067-7.646,17.067-17.067C119.467,361.779,111.821,354.133,102.4,354.133z"/>
			<path d="M401.067,354.133c-9.421,0-17.067,7.646-17.067,17.067c0,9.421,7.646,17.067,17.067,17.067
				c9.421,0,17.067-7.646,17.067-17.067C418.133,361.779,410.487,354.133,401.067,354.133z"/>
			<path d="M503.467,320h-8.533v-51.2c0-4.71-3.823-8.533-8.533-8.533h-8.533V140.8h8.533c4.71,0,8.533-3.823,8.533-8.533V98.133
				c0-4.71-3.823-8.533-8.533-8.533H17.067C7.654,89.6,0,97.254,0,106.667v170.667h34.133c4.71,0,8.533,3.823,8.533,8.533
				c0,4.71-3.823,8.533-8.533,8.533H0v17.067h34.133c4.71,0,8.533,3.823,8.533,8.533s-3.823,8.533-8.533,8.533H0v34.133
				c0,9.412,7.654,17.067,17.067,17.067h34.901C56.055,403.908,77.082,422.4,102.4,422.4c25.318,0,46.345-18.492,50.432-42.667
				h197.803c4.087,24.175,25.114,42.667,50.432,42.667c25.318,0,46.344-18.492,50.432-42.667h9.301c0,4.71,3.823,8.533,8.533,8.533
				h34.133c4.71,0,8.533-3.823,8.533-8.533v-51.2C512,323.823,508.177,320,503.467,320z M51.2,217.6
				c-4.71,0-8.533-3.823-8.533-8.533V140.8c0-4.71,3.823-8.533,8.533-8.533h68.267c4.71,0,8.533,3.823,8.533,8.533v68.267
				c0,4.71-3.823,8.533-8.533,8.533H51.2z M102.4,405.333c-18.825,0-34.133-15.309-34.133-34.133s15.309-34.133,34.133-34.133
				c18.825,0,34.133,15.309,34.133,34.133S121.225,405.333,102.4,405.333z M230.4,209.067c0,4.71-3.823,8.533-8.533,8.533H153.6
				c-4.71,0-8.533-3.823-8.533-8.533V140.8c0-4.71,3.823-8.533,8.533-8.533h68.267c4.71,0,8.533,3.823,8.533,8.533V209.067z
				 M332.8,209.067c0,4.71-3.823,8.533-8.533,8.533H256c-4.71,0-8.533-3.823-8.533-8.533V140.8c0-4.71,3.823-8.533,8.533-8.533
				h68.267c4.71,0,8.533,3.823,8.533,8.533V209.067z M358.4,302.933c0-4.71,3.823-8.533,8.533-8.533H384
				c4.71,0,8.533,3.823,8.533,8.533s-3.823,8.533-8.533,8.533h-17.067C362.223,311.467,358.4,307.644,358.4,302.933z
				 M401.067,405.333c-18.825,0-34.133-15.309-34.133-34.133s15.309-34.133,34.133-34.133c18.825,0,34.133,15.309,34.133,34.133
				S419.891,405.333,401.067,405.333z M460.8,260.267h-68.267c-9.412,0-17.067-7.654-17.067-17.067v-85.333
				c0-9.412,7.654-17.067,17.067-17.067H460.8V260.267z M494.933,371.2h-17.067v-34.133h8.533h8.533V371.2z"/>
			<rect x="264.533" y="149.333" width="51.2" height="51.2"/>
			<rect x="59.733" y="149.333" width="51.2" height="51.2"/>
			<rect x="162.133" y="149.333" width="51.2" height="51.2"/>
		</g>
	</g>
</g>
</svg>