<?xml version="1.0" encoding="iso-8859-1"?>
<!-- Uploaded to: SVG Repo, www.svgrepo.com, Generator: SVG Repo Mixer Tools -->
<svg fill="#000000" height="800px" width="800px" version="1.1" id="Layer_1" xmlns="http://www.w3.org/2000/svg" xmlns:xlink="http://www.w3.org/1999/xlink" 
	 viewBox="0 0 512 512" xml:space="preserve">
<g transform="translate(1 1)">
	<g>
		<g>
			<path d="M101.4,353.133c-9.387,0-17.067,7.68-17.067,17.067s7.68,17.067,17.067,17.067c9.387,0,17.067-7.68,17.067-17.067
				S110.787,353.133,101.4,353.133z"/>
			<path d="M400.067,353.133c-9.387,0-17.067,7.68-17.067,17.067s7.68,17.067,17.067,17.067s17.067-7.68,17.067-17.067
				S409.453,353.133,400.067,353.133z"/>
			<path d="M383,293.4h-17.067c-5.12,0-8.533,3.413-8.533,8.533s3.413,8.533,8.533,8.533H383c5.12,0,8.533-3.413,8.533-8.533
				S388.12,293.4,383,293.4z"/>
			<path d="M502.467,319h-8.533v-51.2c0-5.12-3.413-8.533-8.533-8.533h-8.533V139.8h8.533c5.12,0,8.533-3.413,8.533-8.533V97.133
				c0-5.12-3.413-8.533-8.533-8.533H16.067C6.68,88.6-1,96.28-1,105.667v256c0,9.387,7.68,17.067,17.067,17.067H50.93
				c4.095,24.134,25.217,42.667,50.47,42.667c25.253,0,46.375-18.533,50.47-42.667h197.727c4.095,24.134,25.217,42.667,50.47,42.667
				c25.253,0,46.375-18.533,50.47-42.667h9.263c0,5.12,3.413,8.533,8.533,8.533h34.133c5.12,0,8.533-3.413,8.533-8.533v-51.2
				C511,322.413,507.587,319,502.467,319z M101.4,404.333c-18.773,0-34.133-15.36-34.133-34.133
				c0-18.773,15.36-34.133,34.133-34.133c18.773,0,34.133,15.36,34.133,34.133C135.533,388.973,120.173,404.333,101.4,404.333z
				 M400.067,404.333c-18.773,0-34.133-15.36-34.133-34.133c0-18.773,15.36-34.133,34.133-34.133
				c18.773,0,34.133,15.36,34.133,34.133C434.2,388.973,418.84,404.333,400.067,404.333z M450.537,361.667
				c-2.881-16.98-14.192-31.177-29.444-38.106c-0.338-0.155-0.674-0.314-1.017-0.462c-0.214-0.092-0.432-0.175-0.648-0.264
				c-0.553-0.229-1.109-0.453-1.672-0.662c-0.152-0.056-0.306-0.108-0.459-0.163c-0.625-0.226-1.256-0.442-1.893-0.644
				c-0.138-0.044-0.276-0.085-0.415-0.127c-0.648-0.199-1.302-0.387-1.962-0.56c-0.146-0.038-0.292-0.076-0.439-0.113
				c-0.648-0.164-1.301-0.316-1.96-0.455c-0.166-0.035-0.331-0.071-0.497-0.104c-0.636-0.128-1.277-0.242-1.922-0.346
				c-0.191-0.031-0.381-0.064-0.573-0.093c-0.621-0.093-1.248-0.17-1.877-0.24c-0.213-0.024-0.425-0.052-0.639-0.074
				c-0.629-0.062-1.263-0.107-1.899-0.146c-0.21-0.013-0.417-0.033-0.628-0.043c-0.837-0.041-1.68-0.065-2.529-0.065
				c-0.849,0-1.692,0.024-2.529,0.065c-0.21,0.01-0.418,0.03-0.628,0.043c-0.636,0.039-1.27,0.084-1.899,0.146
				c-0.214,0.021-0.426,0.05-0.639,0.074c-0.629,0.07-1.256,0.148-1.877,0.24c-0.192,0.029-0.382,0.062-0.574,0.093
				c-0.645,0.104-1.285,0.218-1.921,0.345c-0.167,0.034-0.332,0.069-0.498,0.104c-0.658,0.139-1.311,0.291-1.959,0.455
				c-0.146,0.037-0.293,0.074-0.439,0.113c-0.66,0.174-1.314,0.361-1.962,0.561c-0.138,0.042-0.276,0.083-0.414,0.127
				c-0.638,0.202-1.268,0.418-1.894,0.644c-0.152,0.055-0.305,0.107-0.457,0.163c-0.564,0.21-1.121,0.434-1.675,0.664
				c-0.215,0.089-0.432,0.172-0.645,0.263c-0.343,0.148-0.68,0.308-1.019,0.463c-15.25,6.93-26.561,21.126-29.441,38.105H151.87
				c-2.881-16.98-14.192-31.177-29.444-38.106c-0.338-0.155-0.674-0.314-1.017-0.462c-0.214-0.092-0.432-0.175-0.648-0.264
				c-0.553-0.229-1.109-0.453-1.672-0.662c-0.152-0.056-0.306-0.108-0.459-0.163c-0.625-0.226-1.256-0.442-1.893-0.644
				c-0.138-0.044-0.276-0.085-0.415-0.127c-0.648-0.199-1.302-0.386-1.962-0.56c-0.146-0.038-0.292-0.076-0.439-0.113
				c-0.648-0.164-1.301-0.316-1.959-0.455c-0.166-0.035-0.331-0.071-0.498-0.104c-0.636-0.128-1.277-0.242-1.921-0.346
				c-0.191-0.031-0.381-0.064-0.573-0.093c-0.621-0.093-1.248-0.17-1.877-0.24c-0.213-0.024-0.425-0.052-0.639-0.074
				c-0.629-0.062-1.263-0.107-1.899-0.146c-0.21-0.013-0.417-0.033-0.628-0.043c-0.837-0.041-1.68-0.065-2.529-0.065
				c-0.849,0-1.692,0.024-2.529,0.065c-0.21,0.01-0.418,0.03-0.628,0.043c-0.636,0.039-1.27,0.084-1.899,0.146
				c-0.214,0.021-0.426,0.05-0.639,0.074c-0.629,0.07-1.256,0.148-1.877,0.24c-0.192,0.029-0.382,0.062-0.574,0.093
				c-0.645,0.104-1.285,0.218-1.921,0.345c-0.167,0.034-0.332,0.069-0.498,0.104c-0.658,0.139-1.311,0.291-1.959,0.455
				c-0.146,0.037-0.293,0.074-0.439,0.113c-0.66,0.174-1.314,0.361-1.962,0.561c-0.138,0.042-0.276,0.083-0.414,0.127
				c-0.638,0.202-1.268,0.418-1.894,0.644c-0.152,0.055-0.305,0.107-0.457,0.163c-0.564,0.21-1.121,0.434-1.675,0.664
				c-0.215,0.089-0.432,0.172-0.645,0.263c-0.343,0.148-0.68,0.308-1.019,0.463c-15.25,6.93-26.561,21.126-29.441,38.105H16.067
				v-34.133h17.067c5.12,0,8.533-3.413,8.533-8.533s-3.413-8.533-8.533-8.533H16.067v-8.533h17.067c5.12,0,8.533-3.413,8.533-8.533
				c0-5.12-3.413-8.533-8.533-8.533H16.067v-179.2h460.8v17.067h-8.533h-76.8c-18.773,0-34.133,15.36-34.133,34.133V242.2
				c0,18.773,15.36,34.133,34.133,34.133h76.8h8.533V319h-8.533c-5.12,0-8.533,3.413-8.533,8.533v34.133H450.537z M391.533,259.267
				c-9.387,0-17.067-7.68-17.067-17.067v-85.333c0-9.387,7.68-17.067,17.067-17.067H459.8v119.467H391.533z M493.933,370.2h-17.067
				v-34.133h8.533h8.533V370.2z"/>
			<path d="M118.467,131.267H50.2c-5.12,0-8.533,3.413-8.533,8.533v68.267c0,5.12,3.413,8.533,8.533,8.533h68.267
				c5.12,0,8.533-3.413,8.533-8.533V139.8C127,134.68,123.587,131.267,118.467,131.267z M109.933,199.533h-51.2v-51.2h51.2V199.533z
				"/>
			<path d="M220.867,131.267H152.6c-5.12,0-8.533,3.413-8.533,8.533v68.267c0,5.12,3.413,8.533,8.533,8.533h68.267
				c5.12,0,8.533-3.413,8.533-8.533V139.8C229.4,134.68,225.987,131.267,220.867,131.267z M212.333,199.533h-51.2v-51.2h51.2
				V199.533z"/>
			<path d="M323.267,131.267H255c-5.12,0-8.533,3.413-8.533,8.533v68.267c0,5.12,3.413,8.533,8.533,8.533h68.267
				c5.12,0,8.533-3.413,8.533-8.533V139.8C331.8,134.68,328.387,131.267,323.267,131.267z M314.733,199.533h-51.2v-51.2h51.2
				V199.533z"/>
		</g>
	</g>
</g>
</svg>